<svg xmlns="http://www.w3.org/2000/svg" version="1.1" xmlns:xlink="http://www.w3.org/1999/xlink" xmlns:svgjs="http://svgjs.dev/svgjs" width="1300" height="300" preserveAspectRatio="none" viewBox="0 0 1300 300"><g mask="url(&quot;#SvgjsMask1022&quot;)" fill="none"><rect width="1300" height="300" x="0" y="0" fill="#0e2a47"></rect><circle r="2.52" cx="906.8299999999999" cy="255.20000000000002" filter="url(#SvgjsFilter1023)" fill="rgba(51, 121, 194, 0.58)"></circle><circle r="4.06" cx="1120.3" cy="284.57" filter="url(#SvgjsFilter1023)" fill="rgba(51, 121, 194, 0.58)"></circle><circle r="3.215" cx="732.265" cy="66.645" filter="url(#SvgjsFilter1023)" fill="rgba(51, 121, 194, 0.58)"></circle><circle r="4.075" cx="1089.4750000000001" cy="51.645" filter="url(#SvgjsFilter1023)" fill="rgba(51, 121, 194, 0.58)"></circle><circle r="4.365" cx="401.445" cy="43.325" filter="url(#SvgjsFilter1023)" fill="rgba(51, 121, 194, 0.58)"></circle><circle r="3.21" cx="1235.99" cy="157.92000000000002" filter="url(#SvgjsFilter1023)" fill="rgba(51, 121, 194, 0.58)"></circle><circle r="4.865" cx="996.355" cy="203.255" filter="url(#SvgjsFilter1023)" fill="rgba(51, 121, 194, 0.58)"></circle><circle r="2.67" cx="954.88" cy="209.28" filter="url(#SvgjsFilter1023)" fill="rgba(51, 121, 194, 0.58)"></circle><circle r="2.59" cx="585.5500000000001" cy="150.37" filter="url(#SvgjsFilter1023)" fill="rgba(51, 121, 194, 0.58)"></circle><circle r="3.31" cx="1184.98" cy="279.37" filter="url(#SvgjsFilter1023)" fill="rgba(51, 121, 194, 0.58)"></circle><circle r="4.59" cx="1104.35" cy="74.29" filter="url(#SvgjsFilter1023)" fill="rgba(51, 121, 194, 0.58)"></circle><circle r="3.635" cx="1003.355" cy="224.785" filter="url(#SvgjsFilter1023)" fill="rgba(51, 121, 194, 0.58)"></circle><circle r="2.735" cx="438.70500000000004" cy="184.125" filter="url(#SvgjsFilter1023)" fill="rgba(51, 121, 194, 0.58)"></circle><circle r="3.55" cx="815.66" cy="230.79000000000002" filter="url(#SvgjsFilter1023)" fill="rgba(51, 121, 194, 0.58)"></circle><circle r="4.21" cx="416.22999999999996" cy="289.26" filter="url(#SvgjsFilter1023)" fill="rgba(51, 121, 194, 0.58)"></circle><circle r="4.73" cx="125.76" cy="291.48" filter="url(#SvgjsFilter1023)" fill="rgba(51, 121, 194, 0.58)"></circle><circle r="3.495" cx="1284.8149999999998" cy="173.60500000000002" filter="url(#SvgjsFilter1023)" fill="rgba(51, 121, 194, 0.58)"></circle><circle r="3.885" cx="1066.035" cy="32.675" filter="url(#SvgjsFilter1023)" fill="rgba(51, 121, 194, 0.58)"></circle><circle r="3.95" cx="663.62" cy="230.04" filter="url(#SvgjsFilter1023)" fill="rgba(51, 121, 194, 0.58)"></circle><circle r="3.545" cx="1288.355" cy="299.785" filter="url(#SvgjsFilter1023)" fill="rgba(51, 121, 194, 0.58)"></circle><path d="M446.5 206.3L423.5 246.2 407.2 250.3 415 236.8C416.2 235.6 415.4 234 414.2 232.7 412.9 232.3 410.9 232.7 410.5 233.9L399.4 252.3 383.4 256.7 388 240.8 406.8 230.3C406.8 230.3 407.2 229.8 407.2 229.8 408 229 408 227.4 407.6 226.2 406.4 224.9 405.2 224.5 403.6 225.3L390 233.1 394.6 217.1 434.3 194C434.3 194 435.1 194 435.1 194 435.9 193.2 435.9 191.5 435.5 190.3 434.7 188.7 432.7 188.3 431.4 189.5L396.7 209.4 401.6 189.8 417.2 180.8C417.2 180.8 417.2 180.8 417.6 180.4 418.4 179.6 418.8 178.4 418.4 177.2 417.2 175.9 415.6 175.1 413.9 175.9L403.7 182 407.4 167.7C408.2 166.1 407 164.9 405.8 164.5 404.2 163.6 402.5 164.5 402.1 166.5L398 180.4 392.7 170.1C391.5 168.9 389.8 168.1 388.6 169.3 387 170.1 386.6 171.4 387.4 173L396.3 188.5 390.9 207.7 370.6 172.5C370.2 171.3 368.2 170.9 366.5 171.7 365.7 172.5 364.9 174.1 365.7 175.8L388.9 215.5 384.3 231.4 376.6 217.9C375.8 216.3 374.2 216.3 372.5 217.1 371.3 217.5 370.9 219.5 371.3 220.7L382.3 239.2 378.1 255.5 366.3 243.6 366.4 222.4C366.4 220.7 365.2 219.5 363.5 219.5 362.3 219.1 360.7 220.7 360.7 222.3L360.6 237.9 348.8 226 349.4 179.8C349.4 178.2 348.1 177 346.5 176.9 344.9 176.9 343.6 178.2 343.6 179.8L343.1 220.2 329.3 206.3 329.3 188.3C329.3 186.7 328.1 185.5 326.5 185.5 324.8 185.5 323.6 186.7 323.6 188.3L323.1 200.2 313 189.9C311.7 188.7 310.1 188.7 308.9 189.9 307.7 191.1 307.6 192.8 308.9 194L319.1 204.2 307.6 204.2C306 204.2 304.7 205.4 304.7 207.1S306 209.9 307.6 209.9L324.8 210 339 224.3 299 224.2C297.3 224.2 296.1 225.4 296.1 227 296.1 228.7 297.3 229.9 299 229.9L344.7 230.1 356.5 241.9 341 241.9C339.4 241.9 338.1 243.1 338.1 244.7 338.1 246.4 339.3 247.6 341 247.6L362.2 247.7 373.6 259.2 358.1 263.2 339.3 252.5C338.1 252.1 336.1 252.5 335.6 253.7 334.8 255.4 335.2 256.6 336.4 257.8L349.9 265.6 334.4 269.7 294.4 246.6C292.8 245.8 291.5 246.2 290.3 247.5 289.5 249.1 290.3 250.7 291.1 251.5L326.2 272.1 306.6 276.9 291.5 268.3C290.3 267.1 288.6 267.9 287.4 269.1 287 270.3 287.4 272.4 289 273.2L298.8 278.9 284.9 283C283.3 283 282.4 284.6 282.8 286.7 283.2 287.9 284.9 288.7 286.1 288.3L300.4 284.7 294.3 294.9C293.4 296.5 294.2 298.1 295.5 298.5 296.7 299.8 297.9 299.4 298.7 298.5 299.1 298.1 299.1 298.1 299.6 297.7L308.2 282.6 327.8 277.8 307.7 312.5C306.4 313.7 307.3 315.3 308.5 316.6 309.7 317 310.9 316.6 311.8 315.7 312.2 315.3 312.2 315.3 312.2 315.3L336 275.4 351.5 271.3 343.7 284.8C342.9 286.4 343.3 287.7 344.5 288.9 345.7 289.3 347.4 289.3 348.2 288.5 348.6 288.1 348.6 288.1 349 287.7L359.7 268.9 375.2 264.9 371.1 280.4 352.7 291.4C351 292.2 350.6 294.2 351 295.4 352.3 296.7 353.9 297.5 355.1 296.3L368.6 288.6 364.9 304.5 324.4 327.6C323.2 328 322.7 330.1 323.1 331.3 324.4 332.5 326 333.4 327.6 332.5L362.4 312.6 357.1 331.8 341.9 340.4C340.3 341.2 339.9 343.2 341.1 344.4 341.5 345.7 343.1 346.5 344.8 345.7L355 339.6 351.3 353.9C350.9 355.1 351.7 356.7 353.3 357.6 354.1 357.6 355.3 357.1 356.2 356.3 356.2 356.3 356.6 355.9 357 355.5L360.7 341.2 366.8 351.5C367.2 352.7 369.2 353.1 370.5 352.7 370.9 352.3 370.9 352.3 370.9 352.3 372.1 351.1 372.1 349.4 371.3 348.6L362.8 333.5 367.7 313.9 388 349.1C389.3 350.3 390.5 350.7 392.1 349.9 392.1 349.9 392.5 349.5 392.5 349.5 393.4 348.7 393.8 347.5 393 345.8L370.2 305.7 374.3 290.2 382.1 303.7C383.3 304.9 384.9 305.8 386.1 304.5 386.6 305 387 304.5 387 304.5 387.8 303.7 387.8 302.1 387.4 300.9L376.4 282.4 381 266.5 392.4 278 392.3 299.3C392.3 300.9 393.9 302.5 395.5 302.5 396.8 302.1 398 300.9 398.4 299.7L398.1 283.7 409.9 295.6 409.7 341.4C409.7 343 410.9 344.2 412.6 344.3 414.2 344.3 415.4 343 415.4 341.4L415.6 301.4 429.8 315.7 429.8 332.9C429.8 334.5 431 335.7 432.6 335.7S435.5 334.5 435.5 332.9L435.5 321.4 445.7 331.7C446.9 332.9 448.6 332.9 449.8 331.7 451 330.5 451 328.9 449.8 327.6L439.6 317.4 451.5 317C452.3 317 453.1 317 453.5 316.6 453.9 316.2 454.3 315 454.3 314.2 454.3 312.5 453.1 311.3 451.5 311.3L433.9 311.6 419.7 297.3 460.1 297C460.9 297 461.8 297 462.2 296.6 462.6 296.2 463 295 463 294.2 463 292.5 461.8 291.3 460.1 291.3L414 291.6 402.2 279.7 418.1 280.1C418.9 280.1 419.7 279.3 420.1 278.9 420.5 278.5 421 278.1 421 277.3 421 275.6 419.3 274 418.1 274.4L396.5 273.9 385.1 262.5 401 258 419.4 269.1C420.6 269.5 422.2 269.5 423 268.7 423.4 268.3 423.4 268.3 423 267.9 424.3 266.7 423.9 264.6 422.2 263.8L408.8 256 424.7 251.6 464.7 275.4C465.9 275.8 467.1 275.4 468 274.6 468.4 274.2 468.4 274.2 468.4 274.2 469.2 272.5 469.2 270.9 467.6 270.1L432.5 249.5 452.1 244.7 467.2 253.3C468.8 254.1 470.1 253.7 470.9 252.9 470.9 252.9 471.3 252.5 471.3 252.5 472.1 250.9 471.3 249.2 470.5 248.4L459.9 242.7 474.2 239C474.6 238.6 475 238.2 475.4 237.8 475.8 237.4 476.2 236.2 476.2 235.4 475.4 233.7 474.2 232.5 472.6 233.3L458.3 236.9 464.4 226.8C465.2 225.1 464.4 223.5 463.6 222.7 462 221.8 460.4 222.7 459.1 223.9L450.5 239 431.3 244.2 451.4 209.6C452.2 207.9 451.8 205.9 450.6 205.5 449 204.6 447.3 204.6 446.5 206.3Z" fill="rgba(51, 121, 194, 0.58)"></path><path d="M1221.1 183.9L1177.9 204.4 1165.4 200.3 1159.9 171.3 1170 162.4 1217.7 166.3C1218.3 166.2 1218.3 166.2 1218.9 166.1 1220 165.9 1221 165.1 1221.3 163.3 1221 161.6 1220.2 160.5 1218.4 160.3L1176.6 157 1192.3 143.5 1210.7 144.7C1210.7 144.7 1211.3 144.6 1211.3 144.6 1212.4 144.4 1213.5 143.6 1213.7 141.8 1214 140.5 1212.6 139 1210.8 138.8L1198.8 137.5 1210.4 127.7C1211.5 126.9 1211.7 125.1 1210.8 123.5S1207.7 122.3 1206.1 123.2L1195 133 1195.7 121.1C1195.9 119.3 1194.5 117.8 1192.6 117.5 1191.5 117.7 1189.9 118.6 1189.7 120.4L1188.5 138.9 1172.2 152.6 1175.5 110.8C1175.7 109 1174.3 107.5 1173 107.1 1171.3 107.4 1169.7 108.3 1169.5 110.1L1166.2 157.8 1155.5 166.9 1128.4 157.3 1125.9 143.7 1152.4 104C1153.4 102.6 1153 100.9 1151.7 100S1148.6 99.4 1147.7 100.7L1124.4 135.7 1120.4 114.7 1130.5 99.9C1131.4 98.5 1131.1 96.8 1129.6 95.3S1126.6 94.7 1125.7 96.1L1118.9 106.8 1116 91.5C1115.7 89.7 1113.7 88.9 1112 89.3 1110.3 89.6 1109.4 90.9 1109.7 92.6L1112.6 108 1102.5 101.1C1101 99.6 1099.3 99.9 1098.5 101.8 1097.6 103.2 1097.9 104.9 1099.3 105.8L1114.1 115.9 1118.1 136.9 1083.6 112.9C1082.2 111.9 1079.9 112.4 1079 113.7S1078.4 116.8 1079.8 117.7L1119.6 144.9 1122.2 158.5 1099.9 177.4 1087.2 172.7 1066.7 129.6C1065.8 128 1064 127.7 1062.3 128.1 1060.7 128.9 1060.5 130.8 1060.8 132.5L1079.1 170.2 1059.6 163.3 1051.7 146.5C1050.8 144.9 1049 144.7 1047.3 145 1046.3 145.8 1045.5 147.7 1046.4 149.3L1051.3 160.1 1036.9 155.2C1035.7 154.9 1034.1 155.8 1033.1 157.1 1032.9 158.9 1033.8 160.5 1035 160.9L1049.5 165.8 1038.2 171.4C1037.2 172.2 1036.4 174.1 1037.1 175.2 1037.5 176.9 1038.7 177.2 1040.4 176.9 1040.4 176.9 1041 176.8 1041 176.8L1057.7 168.9 1077.2 175.8 1039.5 194.1C1037.9 195 1037 196.4 1037.9 197.9 1038.8 199.5 1040.1 199.9 1041.2 199.7 1041.8 199.6 1041.8 199.6 1041.8 199.6L1085.4 178.4 1098 183.1 1103.5 212 1093.3 220.4 1045.1 217.2C1043.8 216.8 1042.4 218.3 1042 219.5 1041.8 221.3 1043.2 222.8 1045 223.1L1086.8 226.3 1071.1 239.9 1052.7 238.7C1050.9 238.4 1049.3 239.3 1049.6 241 1049.3 242.8 1050.8 244.3 1052 244.7L1064.5 245.3 1052.8 255.1C1051.9 256.5 1051.7 258.3 1052.6 259.9 1053.2 260.3 1054.5 260.7 1055.6 260.5 1056.2 260.3 1056.2 260.3 1056.6 259.7L1068.3 249.8 1067.7 262.3C1067.5 264.1 1068.8 265 1070.1 265.4 1070.6 265.3 1070.6 265.3 1071.2 265.2 1072.3 264.9 1073.4 264.2 1073.7 262.9L1074.9 244.5 1090.6 230.9 1087.3 272.7C1087.7 274.4 1088.5 276 1090.3 275.7 1090.9 276.1 1090.9 276.1 1091.5 276 1092.6 275.8 1093.5 274.5 1093.9 273.2L1097.1 225 1107.3 216.6 1135 226 1137.4 239.1 1110.3 278.9C1109.4 280.3 1109.8 282.6 1111.1 283.5S1114.8 284 1115.7 282.6L1139 247.6 1142.9 268.1 1132.9 283.5C1132 284.8 1132.3 286.5 1133.6 287.4 1135 288.4 1136.7 288 1137.6 286.7L1144.5 276.6 1147.4 291.9C1147.6 293 1149.1 294.5 1150.8 294.2 1152.5 293.9 1153.9 291.9 1153.7 290.7L1150.8 275.4 1160.9 282.3C1161.6 282.8 1162.2 283.2 1162.8 283.1 1163.9 282.9 1164.4 282.2 1164.9 281.5 1165.8 280.2 1165.5 278.5 1164.1 277.6L1149.2 266.9 1145.3 246.4 1179.8 270.5C1180.5 270.9 1181.1 270.8 1182.2 270.6 1182.8 270.5 1183.3 270.4 1183.8 269.7 1184.7 268.4 1184.3 266.1 1182.9 265.2L1143.7 237.9 1141.2 224.9 1162.9 206.1 1176 210 1196.7 253.8C1197.4 254.8 1198.8 255.7 1199.9 255.5 1200.5 255.4 1200.5 255.4 1200.4 254.8 1202.1 254.5 1202.9 252.6 1202 251L1183.7 213.3 1203.8 220.1 1211.7 236.8C1212.5 237.8 1213.7 238.2 1214.8 238 1214.8 238 1215.4 237.9 1215.4 237.9 1217.1 237.6 1217.9 235.6 1217 234L1211.4 222.8 1225.8 227.7C1226.5 228.1 1227.1 228 1227.6 227.9 1228.8 227.7 1229.8 226.9 1229.7 226.4 1230.5 224.4 1229.6 222.8 1228.3 221.9L1213.8 217 1224.6 212C1226.2 211.1 1227 209.2 1226.2 207.6 1225.4 206.6 1223.5 205.8 1222.4 206.6L1205.7 214.4 1186.2 207.5 1223.9 189.2C1225.4 188.4 1225.7 186.5 1225.4 184.8 1224.6 183.8 1222.7 183 1221.1 183.9ZM1154.3 175.9L1158.5 198.1 1159.1 201.5 1156.6 203.7 1139.9 218.1 1136.8 220.4 1133.7 219.2 1112.9 212 1109.7 210.8 1109.1 207.4 1104.9 185.3 1104.3 181.9 1106.8 179.6 1123.5 165.3 1126 163.1 1129.7 164.1 1150.5 171.4 1153.7 172.5 1154.3 175.9Z" fill="rgba(51, 121, 194, 0.58)"></path><path d="M805.9 190L796 202.5 791.8 192.7C791.4 191.6 790 190.9 788.4 191.2 787.2 192.1 786.5 193.5 786.9 194.6L792.3 207.6 783.1 219.1 772.4 192.6C771.6 191 770.1 190.3 769 191.1 767.4 191.4 766.7 192.8 767.5 194.5L779.4 223.7 771.3 234.3 740.7 230.1 736.1 219.3 757 193.1C757.1 192.5 757.1 192 757.2 191.5 757.3 191 756.9 190 756.5 189.4 755.1 188.2 753.5 188.5 752.8 189.9L733.8 213.9 728.5 200.4 737.8 187.9C738.3 187.9 738.4 187.4 738.4 186.9 738.6 185.9 738.2 184.9 737.3 184.2 736.4 183.6 734.8 183.9 733.6 184.8L726.1 195 719.2 178.2C718.9 177.1 717.4 176.4 715.9 176.7 714.7 177.6 714 179 714.4 180.1L720.9 195.8 710.4 194.3C708.9 194.1 707.7 195.5 707.6 196.5 707.3 198 708.1 199.6 709.6 199.9L723.2 201.7 728.5 215.2 700.4 211.4C698.9 211.1 697.8 212 697.6 213.5 697.4 215 698.2 216.2 699.7 216.4L730.8 220.6 735.9 232 716.7 256.4 705.2 254.9 692.9 225.1C692.6 223.6 690.7 222.8 689.6 223.6 688 223.9 687.8 225.4 688.1 227L699.2 254 684.7 252.1 679.4 238.6C679 237.5 677.1 236.7 676 237.1S674.1 239.4 674.4 241L678.7 251.2 661.1 248.8C659.6 248.6 658.4 250 658.2 251.5 658.1 252.5 658.9 254.2 660.4 254.4L677.9 256.8 671 266C670.4 267 670.2 268.5 671.5 269.7 672.5 270.3 674.6 270.1 675.2 269.1L683.9 257.6 698.4 259.6 680.5 282.6C679.8 284.1 679.6 285.6 680.9 286.8 681.9 287.4 684 287.2 684.6 286.2L704.4 260.4 716 261.9 727.9 290.6 719.9 300.2 688.9 296C687.4 295.8 686.2 296.7 686 298.2 685.8 299.7 686.6 301.3 688.1 301.5L716.2 305.3 707.4 316.9 693.9 315.1C692.4 314.9 691.3 315.7 691.1 317.2 690.9 318.7 691.7 319.9 693.2 320.1L703.8 321.5 693.3 334.9C692.6 335.8 692.9 337.9 693.8 338.5 695.2 339.2 696.7 339.4 697.4 338L708.5 324.2 713.1 335.5C713.9 336.7 715.4 337.4 716.4 337 717.5 336.7 718.1 335.7 718.3 334.7 718.3 334.7 718.4 334.2 717.9 333.6L712.3 319.1 721 307.5 732.9 335.7C733.2 337.3 734.7 338 736.3 337.2 736.9 336.7 737.5 336.3 737.6 335.3 737.7 334.8 737.7 334.3 737.8 333.8L724.7 302.9 732 293.7 762.6 297.9 767.5 310.3 748.3 335.2C747.1 336.6 747.4 338.2 748.8 338.9 749.7 340 751.3 339.7 752.5 338.4L769.9 315.7 775.7 329.3 767 340.3C766.4 341.3 766.7 342.8 767.5 344 769 344.7 770.5 344.9 771.2 343.5L777.9 335.2 784.1 349.8C784.4 351.4 785.9 351.6 787.5 351.3 788 350.9 788.7 349.9 788.8 348.9 788.8 348.9 788.9 348.4 788.9 347.9L782.4 332.2 794.9 333.9C795.9 334.1 797.6 333.3 797.8 331.8 798 330.3 796.6 329.1 795.6 328.9L780.1 326.8 774.3 313.3 804.8 317.4C806.3 317.6 807.5 316.3 807.7 314.8S807.1 312.1 805.6 311.9L772 307.4 767.4 296 786.6 271.6 799.6 273.4 811.8 303.6C812.7 304.7 814.1 305.4 815.7 305.1 816.3 304.7 816.9 303.8 817 302.8 817.1 302.3 817.2 301.8 816.7 301.2L805.6 274.2 820.2 276.2 826 289.7C826.3 290.8 827.8 291.5 829.3 291.2 830.5 290.3 831.2 288.9 830.8 287.8L826.2 277 842.2 279.2C843.2 279.3 844.9 278 845 277 845.3 275.5 844 273.8 843 273.7L826.9 271.5 834.2 262.8C834.3 262.3 834.4 261.8 834.4 261.3 834.6 260.3 834.2 259.2 833.8 258.6 832.3 257.9 830.8 258.2 829.6 259.1L820.9 270.7 806.4 268.7 824.3 245.6C825.5 244.2 825.2 242.7 824.3 242 822.9 240.8 821.4 241.1 820.2 242L800.4 267.9 787.4 266.1 775.4 237.4 782.9 227.7 816.5 232.3C818 232.5 819.1 231.6 819.3 230.1 819.5 228.6 818.6 227.5 817.1 227.3L786.6 223.1 795.8 211.6 811.3 213.7C812.3 213.9 814 212.6 814.2 211.1 814.5 209.6 813.1 208.4 812.1 208.2L799.6 206.5 810.1 193.1C810.1 192.6 810.1 192.6 810.2 192.1 810.3 191.1 810 190.1 809.5 189.5 808.1 188.8 806.5 189.1 805.9 190ZM781.3 265.3L782.4 268.5 780.6 270.8 765.1 290.6 763.3 292.9 760.3 292.5 735.7 289.1 732.7 288.7 731.6 286 722 262.8 720.8 260.1 722.7 257.3 738.1 237.9 740 235.1 743 235.5 767.6 238.9 770.6 239.3 771.7 242.5 781.3 265.3Z" fill="rgba(51, 121, 194, 0.58)"></path><path d="M63 249.3L86.8 246.4 92.1 250.3 90.1 264.9 83.9 267.6 61.8 258.2C61.6 258.2 61.6 258.2 61.3 258.1 60.7 258 60.1 258.3 59.7 259.1 59.6 259.9 59.8 260.5 60.6 260.9L79.9 269.1 70.3 273 61.8 269.6C61.8 269.6 61.5 269.5 61.5 269.5 60.9 269.4 60.3 269.6 59.9 270.5 59.5 271 60 271.9 60.8 272.3L66.3 274.8 59.2 277.7C58.6 277.9 58.2 278.7 58.4 279.6S59.7 280.6 60.6 280.5L67.4 277.6 65.2 283.1C64.8 284 65.2 284.9 66.1 285.3 66.6 285.4 67.5 285.2 67.9 284.4L71.4 275.8 81.3 271.9 73.1 291.2C72.7 292 73.2 293 73.7 293.3 74.6 293.4 75.5 293.3 75.9 292.5L85 270.4 91.5 267.7 102.8 276.6 101.9 283.4 83 298.1C82.3 298.6 82.2 299.4 82.7 300.1S84.1 300.8 84.7 300.3L101.3 287.4 99.9 298 92.7 303.5C92.1 304 92 304.8 92.4 305.8S93.8 306.5 94.4 306L99.4 302 98.3 309.8C98.2 310.6 99 311.3 99.8 311.4 100.7 311.5 101.3 311 101.5 310.2L102.5 302.5 106.2 307.3C106.7 308.3 107.5 308.4 108.2 307.6 108.9 307.1 109 306.3 108.5 305.6L103 298.5 104.5 287.9 117.1 304.7C117.6 305.4 118.7 305.5 119.4 305S120.1 303.7 119.6 303L105 283.9 105.9 277 119.5 271.5 124.8 275.7 127.7 299.4C127.9 300.3 128.7 300.7 129.5 300.9 130.4 300.7 130.8 299.9 131 299L128.2 278.2 136.4 284.6 137.5 293.8C137.7 294.7 138.5 295.1 139.3 295.2 140 295 140.6 294.2 140.5 293.3L139.8 287.4 145.9 292C146.4 292.4 147.3 292.2 148 291.7 148.4 290.9 148.2 290 147.7 289.6L141.6 285 147.8 284.1C148.4 283.9 149.1 283.1 148.9 282.5 149 281.6 148.5 281.3 147.7 281.2 147.7 281.2 147.4 281.1 147.4 281.1L138.2 282.2 130 275.9 150.8 273.1C151.7 273 152.3 272.5 152.2 271.6 152 270.7 151.4 270.3 150.9 270.2 150.6 270.2 150.6 270.2 150.6 270.2L126.5 273.3 121.3 269.1 123.3 254.5 129.4 252.2 151.8 261.3C152.3 261.7 153.3 261.2 153.6 260.7 154 259.9 153.6 258.9 152.7 258.5L133.4 250.4 143 246.4 151.6 249.9C152.4 250.3 153.3 250.1 153.4 249.3 153.8 248.5 153.4 247.5 152.8 247.2L147 244.9 154.1 242.1C154.7 241.6 155.1 240.8 155 239.9 154.7 239.5 154.2 239.2 153.6 239.1 153.3 239.1 153.3 239.1 153 239.3L145.9 242.1 148.2 236.3C148.6 235.5 148.1 234.9 147.5 234.5 147.3 234.5 147.3 234.5 147 234.4 146.4 234.3 145.8 234.6 145.4 235.1L141.9 243.7 132.4 247.6 140.5 228.3C140.6 227.4 140.4 226.5 139.6 226.4 139.3 226.1 139.3 226.1 139.1 226.1 138.5 226 137.8 226.5 137.5 227L128.3 249.4 122.2 251.8 110.5 242.9 111.4 236.3 130.6 221.7C131.3 221.2 131.4 220.1 130.9 219.4S129.3 218.6 128.6 219.1L112 232 113.4 221.7 120.6 216C121.2 215.5 121.4 214.6 120.9 214 120.4 213.3 119.5 213.2 118.9 213.7L114 217.4 115 209.7C115.1 209.1 114.7 208.2 113.8 208.1 112.9 208 112 208.7 111.9 209.3L110.8 217 107.1 212.1C106.9 211.8 106.6 211.5 106.3 211.4 105.8 211.4 105.4 211.6 105.1 211.9 104.5 212.4 104.4 213.2 104.8 213.9L110.3 221.3 108.9 231.6 96.3 214.7C96 214.4 95.7 214.4 95.2 214.3 94.9 214.3 94.6 214.2 94.3 214.5 93.6 215 93.5 216.1 94 216.8L108.3 235.9 107.4 242.5 94.1 248 88.5 244 85.7 220C85.4 219.4 84.9 218.8 84.4 218.7 84.1 218.6 84.1 218.6 84 218.9 83.2 218.8 82.5 219.6 82.7 220.5L85.4 241.3 76.9 234.9 75.8 225.7C75.6 225.1 75.1 224.7 74.5 224.6 74.5 224.6 74.2 224.6 74.2 224.6 73.4 224.5 72.7 225.3 72.9 226.2L73.8 232.4 67.7 227.8C67.4 227.5 67.2 227.4 66.9 227.4 66.3 227.3 65.7 227.5 65.7 227.8 65 228.6 65.1 229.5 65.6 230.1L71.7 234.8 65.8 235.4C64.9 235.6 64.2 236.4 64.4 237.3 64.6 237.9 65.4 238.6 66 238.4L75.2 237.3 83.3 243.6 62.6 246.3C61.7 246.5 61.3 247.3 61.1 248.2 61.4 248.8 62.1 249.5 63 249.3ZM93.5 263.6L95 252.5 95.2 250.8 96.8 250.1 106.9 245.9 108.8 245.3 110.1 246.3 118.8 253.1 120.1 254.1 119.9 255.8 118.4 267 118.1 268.7 116.6 269.4 106.4 273.5 104.9 274.2 103.3 273.1 94.5 266.4 93.2 265.4 93.5 263.6Z" fill="rgba(51, 121, 194, 0.58)"></path><path d="M117.8 104.8L95.7 98.3 91.8 90.8 99.3 93C100 93.5 100.7 92.9 101.2 92.1 101.3 91.5 100.8 90.5 100.2 90.5L90 87.2 86 80 94.2 80.3 101.5 88.3C101.5 88.3 101.8 88.4 101.8 88.4 102.3 88.7 103.1 88.5 103.6 88.2 104.1 87.5 104.1 86.8 103.6 86.1L98.2 80.4 106.5 80.8 122.4 97.4C122.4 97.4 122.5 97.8 122.5 97.8 123 98.1 123.8 98 124.3 97.6 125 97 125 96 124.2 95.5L110.5 80.9 120.6 81.1 126.8 87.6C126.8 87.6 126.8 87.6 127 87.7 127.5 88.1 128.2 88.1 128.7 87.8 129.2 87 129.4 86.1 128.8 85.4L124.6 81.2 132 81.3C132.9 81.5 133.4 80.8 133.4 80.2 133.6 79.3 133 78.6 132 78.6L124.8 78.2 129.1 74.4C129.6 73.7 129.8 72.8 129.1 72.4 128.5 71.7 127.8 71.6 127.1 72.2L120.6 78.3 110.7 78 125.4 64C126 63.7 125.9 62.6 125.4 61.9 124.9 61.6 124 61.4 123.3 62L106.6 77.8 98.4 77.5 104.1 72.2C104.8 71.6 104.6 70.8 104 70.1 103.6 69.5 102.6 69.6 102.1 69.9L94.4 77.4 85.9 77.3 90.4 70.1 100.7 67.7C101.5 67.5 102 66.8 101.8 66 101.8 65.3 100.8 64.7 100 64.9L92.5 66.7 96.9 59.6 119.4 54.5C120.2 54.3 120.7 53.6 120.5 52.8 120.3 52 119.6 51.5 118.8 51.7L99 56.1 104.2 47.8 113 45.7C113.7 45.5 114.2 44.8 114 44 113.8 43.2 113.1 42.8 112.3 42.9L106.5 44.1 110.3 38C110.7 37.2 110.6 36.4 109.8 36 109.1 35.5 108.3 35.7 107.8 36.4L104 42.6 102.7 37C102.5 36.2 101.8 35.8 101 35.9S99.8 36.9 99.9 37.7L101.9 46 96.6 54.6 92 35.1C91.8 34.3 91.1 33.9 90.3 34.1 89.5 34.2 89 35 89.2 35.8L94.4 58 90 65.2 88.3 57.6C88.1 56.8 87.3 56.4 86.5 56.5 85.7 56.7 85.3 57.5 85.5 58.3L87.9 68.6 83.6 75.5 79.9 68.4 82.9 58C83 57.4 82.5 56.4 81.9 56.4 81 56.2 80.4 56.5 80 57.2L77.8 64.7 74 57.6 80.5 35.5C80.8 34.6 80.4 34.1 79.7 33.6 78.8 33.4 78.1 34 77.8 34.5L71.9 53.9 67.2 44.9 69.7 36.6C70.1 35.9 69.6 35.1 68.8 34.7 68.2 34.6 67.2 35.1 67 36L65.3 41.4 61.8 35.1C61.6 34.3 60.7 34.1 59.7 34.5 59.2 34.9 59 35.7 59.3 36.3L62.8 42.8 57.1 41C56.2 40.8 55.5 41.4 55.4 42 55 42.8 55.3 43.3 55.8 43.6 56.1 43.8 56.1 43.8 56.3 43.9L64.6 46.4 69.3 55.4 50.1 49.6C49.3 49.1 48.6 49.7 48.2 50.5 48.1 51.1 48.5 51.6 48.9 51.9 49.2 52.1 49.2 52.1 49.2 52.1L71.4 59.1 75.2 66.1 67.7 63.9C66.8 63.7 66.3 64 65.8 64.8 65.8 65.4 65.9 66.2 66.4 66.5 66.7 66.7 66.7 66.7 66.9 66.8L77.3 69.8 81 76.9 73 76.7 65.6 69C65 68.3 63.9 68.4 63.4 68.7 62.9 69.4 62.7 70.3 63.4 70.8L68.8 76.5 60.6 76.5 44.6 59.5C44.3 58.9 43.2 59 42.7 59.3 42.2 60 42 60.9 42.6 61.6L56.3 76.2 46.4 75.8 40.5 69.5C39.9 68.8 38.8 68.8 38.4 69.5 37.8 69.9 37.6 70.8 38.2 71.5L42.4 75.7 35 75.6C34.3 75.5 33.6 76.1 33.4 77 33.5 77.4 33.9 77.9 34.4 78.3 34.4 78.3 34.6 78.4 34.8 78.6L42.2 78.7 38 82.9C37.4 83.2 37.4 84.2 37.8 84.8 38 84.9 38 84.9 38 84.9 38.8 85.4 39.6 85.2 39.9 84.7L46.2 78.8 56.3 79 41.6 92.9C41.1 93.7 41.1 94.3 41.6 95 41.6 95 41.9 95.2 41.9 95.2 42.4 95.5 43 95.5 43.7 94.9L60.6 79.2 68.6 79.4 62.9 84.8C62.5 85.5 62.3 86.4 63 86.8 62.9 87.1 63.1 87.2 63.1 87.2 63.6 87.5 64.4 87.3 64.9 87L72.6 79.5 80.9 79.9 76.6 86.8 66.3 89.2C65.5 89.4 64.9 90.4 65.1 91.2 65.4 91.7 66.2 92.2 66.8 92.2L74.5 90.2 70.1 97.3 47.8 102.6C47 102.8 46.6 103.5 46.8 104.3 47 105.1 47.7 105.5 48.5 105.4L68 100.8 62.6 109.4 54.3 111.3C53.5 111.5 53 112.3 53.2 113.1S54.2 114.3 54.9 114.1L60.5 112.8 56.7 119C56.3 119.7 56.4 120.5 57.2 120.9 57.9 121.4 58.7 121.2 59.2 120.5L63 114.3 64.5 120.1C64.6 120.5 64.7 120.8 65 121 65.2 121.2 65.8 121.2 66.2 121.1 67 120.9 67.5 120.2 67.3 119.4L65.1 110.9 70.4 102.3 75.3 121.9C75.3 122.3 75.4 122.7 75.7 122.9 75.9 123 76.6 123.1 77 123 77.8 122.8 78.2 122.1 78 121.3L72.6 98.9 77 91.7 78.6 99.5C78.7 99.9 79.2 100.2 79.4 100.4 79.7 100.5 79.9 100.7 80.3 100.6 81.1 100.4 81.7 99.4 81.4 98.9L79.1 88.3 83.4 81.4 87.4 88.7 84.1 98.9C84 99.5 84.2 100.3 84.7 100.6 85 100.8 85 100.8 85.1 100.5 85.9 101 86.8 100.6 87 99.7L89.3 92.2 93.3 99.5 86.3 121.7C86.2 122.3 86.6 122.8 87.1 123.2 87.3 123.3 87.3 123.3 87.3 123.3 88.2 123.5 89 123.3 89.2 122.4L95.1 103 99.8 112 97.3 120.3C97.1 121.2 97.5 121.8 97.9 122.1 97.9 122.1 98.2 122.2 98.2 122.2 99.1 122.4 99.8 121.8 100.1 121.4L101.7 115.5 105.1 122.1C105.3 122.2 105.6 122.4 105.8 122.5 106.1 122.7 106.7 122.7 107.1 122.6 107.8 122.1 108.3 121.3 107.7 120.6L104.3 114.1 109.9 115.9C110.8 116.1 111.5 115.5 111.8 115 112 114.1 111.4 113.4 110.7 113L102.4 110.5 97.6 101.8 116.8 107.6C117.7 107.8 118.6 107.3 118.7 106.7 118.9 105.8 118.7 105 117.8 104.8Z" fill="rgba(51, 121, 194, 0.58)"></path></g><defs><mask id="SvgjsMask1022"><rect width="1300" height="300" fill="#ffffff"></rect></mask><filter id="SvgjsFilter1023"><feGaussianBlur stdDeviation="1"></feGaussianBlur></filter></defs></svg>